<?xml version="1.0" encoding="UTF-8"?>
<!DOCTYPE svg PUBLIC "-//W3C//DTD SVG 1.1//EN" "http://www.w3.org/Graphics/SVG/1.1/DTD/svg11.dtd">
<svg xmlns="http://www.w3.org/2000/svg" version="1.1" width="428px" height="62px" style="shape-rendering:geometricPrecision; text-rendering:geometricPrecision; image-rendering:optimizeQuality; fill-rule:evenodd; clip-rule:evenodd" xmlns:xlink="http://www.w3.org/1999/xlink">
<g><path style="opacity:0.99" fill="#54301e" d="M -0.5,0.5 C 142.167,0.5 284.833,0.5 427.5,0.5C 427.5,0.833333 427.5,1.16667 427.5,1.5C 375.167,1.5 322.833,1.5 270.5,1.5C 229.167,1.5 187.833,1.5 146.5,1.5C 116.498,1.33335 86.4981,1.50002 56.5,2C 55.944,2.38258 55.6107,2.88258 55.5,3.5C 52.8333,3.5 50.1667,3.5 47.5,3.5C 31.5,3.5 15.5,3.5 -0.5,3.5C -0.5,2.5 -0.5,1.5 -0.5,0.5 Z"/></g>
<g><path style="opacity:0.969" fill="#6c3820" d="M 146.5,1.5 C 133.5,2.16667 120.5,2.83333 107.5,3.5C 103.833,3.5 100.167,3.5 96.5,3.5C 82.8333,3.5 69.1667,3.5 55.5,3.5C 55.6107,2.88258 55.944,2.38258 56.5,2C 86.4981,1.50002 116.498,1.33335 146.5,1.5 Z"/></g>
<g><path style="opacity:0.969" fill="#763f22" d="M 146.5,1.5 C 187.833,1.5 229.167,1.5 270.5,1.5C 251.833,2.16667 233.167,2.83333 214.5,3.5C 214.5,4.16667 214.5,4.83333 214.5,5.5C 214.5,6.16667 214.5,6.83333 214.5,7.5C 213.833,7.5 213.167,7.5 212.5,7.5C 212.5,7.16667 212.5,6.83333 212.5,6.5C 212.5,6.16667 212.5,5.83333 212.5,5.5C 188.523,3.5097 164.19,2.84304 139.5,3.5C 128.833,3.5 118.167,3.5 107.5,3.5C 120.5,2.83333 133.5,2.16667 146.5,1.5 Z"/></g>
<g><path style="opacity:0.995" fill="#844423" d="M 270.5,1.5 C 322.833,1.5 375.167,1.5 427.5,1.5C 427.5,2.16667 427.5,2.83333 427.5,3.5C 415.167,3.5 402.833,3.5 390.5,3.5C 360.5,3.5 330.5,3.5 300.5,3.5C 279.5,3.5 258.5,3.5 237.5,3.5C 229.833,3.5 222.167,3.5 214.5,3.5C 233.167,2.83333 251.833,2.16667 270.5,1.5 Z"/></g>
<g><path style="opacity:1" fill="#552c19" d="M 47.5,3.5 C 50.1667,3.5 52.8333,3.5 55.5,3.5C 69.1667,3.5 82.8333,3.5 96.5,3.5C 104.167,4.16667 111.833,4.83333 119.5,5.5C 116.813,5.33591 114.146,5.50258 111.5,6C 123.536,6.50313 135.536,7.33647 147.5,8.5C 148.043,8.55999 148.376,8.89333 148.5,9.5C 143.208,10.4948 137.875,10.8282 132.5,10.5C 132.5,9.5 132.5,8.5 132.5,7.5C 129.5,7.5 126.5,7.5 123.5,7.5C 123.5,8.83333 123.5,10.1667 123.5,11.5C 118.167,11.5 112.833,11.5 107.5,11.5C 107.5,10.1667 107.5,8.83333 107.5,7.5C 104.5,7.5 101.5,7.5 98.5,7.5C 93.3054,7.82051 88.3054,7.48717 83.5,6.5C 84.5573,5.79405 84.2239,5.46072 82.5,5.5C 70.8333,4.83333 59.1667,4.16667 47.5,3.5 Z"/></g>
<g><path style="opacity:1" fill="#5e301a" d="M 96.5,3.5 C 100.167,3.5 103.833,3.5 107.5,3.5C 118.167,3.5 128.833,3.5 139.5,3.5C 150.833,4.16667 162.167,4.83333 173.5,5.5C 170.098,5.34243 166.764,5.67577 163.5,6.5C 148.864,5.95879 134.197,5.62546 119.5,5.5C 111.833,4.83333 104.167,4.16667 96.5,3.5 Z"/></g>
<g><path style="opacity:1" fill="#66341c" d="M 139.5,3.5 C 164.19,2.84304 188.523,3.5097 212.5,5.5C 204.747,5.201 197.08,5.53433 189.5,6.5C 184.36,5.51192 179.026,5.17859 173.5,5.5C 162.167,4.83333 150.833,4.16667 139.5,3.5 Z"/></g>
<g><path style="opacity:1" fill="#60321c" d="M 214.5,3.5 C 222.167,3.5 229.833,3.5 237.5,3.5C 253.167,4.16667 268.833,4.83333 284.5,5.5C 281.813,5.33591 279.146,5.50258 276.5,6C 275.692,6.30762 275.025,6.80762 274.5,7.5C 278.107,8.48922 281.774,8.82256 285.5,8.5C 286.376,8.36912 287.043,8.70245 287.5,9.5C 282.544,10.4941 277.544,10.8275 272.5,10.5C 272.167,10.5 271.833,10.5 271.5,10.5C 271.5,10.1667 271.5,9.83333 271.5,9.5C 269.012,7.61216 266.012,6.9455 262.5,7.5C 262.5,8.83333 262.5,10.1667 262.5,11.5C 256.833,11.5 251.167,11.5 245.5,11.5C 245.5,10.5 245.5,9.5 245.5,8.5C 245.5,8.16667 245.5,7.83333 245.5,7.5C 246.756,7.53859 247.756,7.03859 248.5,6C 237.021,5.75383 225.688,5.58716 214.5,5.5C 214.5,4.83333 214.5,4.16667 214.5,3.5 Z"/></g>
<g><path style="opacity:1" fill="#70391d" d="M 237.5,3.5 C 258.5,3.5 279.5,3.5 300.5,3.5C 303.167,4.16667 305.833,4.83333 308.5,5.5C 304.653,5.38081 300.986,6.04748 297.5,7.5C 297.918,6.77842 298.584,6.27842 299.5,6C 294.511,5.50074 289.511,5.33407 284.5,5.5C 268.833,4.83333 253.167,4.16667 237.5,3.5 Z"/></g>
<g><path style="opacity:1" fill="#763b1f" d="M 300.5,3.5 C 330.5,3.5 360.5,3.5 390.5,3.5C 389.833,4.16667 389.167,4.83333 388.5,5.5C 385.061,5.25293 381.728,5.58627 378.5,6.5C 369.295,5.20806 359.962,5.20806 350.5,6.5C 345.36,5.51192 340.026,5.17859 334.5,5.5C 326.018,5.12531 317.351,5.12531 308.5,5.5C 305.833,4.83333 303.167,4.16667 300.5,3.5 Z"/></g>
<g><path style="opacity:1" fill="#793d20" d="M 390.5,3.5 C 402.833,3.5 415.167,3.5 427.5,3.5C 427.5,4.16667 427.5,4.83333 427.5,5.5C 414.359,6.02799 401.359,6.02799 388.5,5.5C 389.167,4.83333 389.833,4.16667 390.5,3.5 Z"/></g>
<g><path style="opacity:1" fill="#4f2816" d="M 8.5,5.5 C 20.1667,4.16667 31.8333,4.16667 43.5,5.5C 40.8127,5.33591 38.146,5.50258 35.5,6C 43.0115,6.17121 50.3448,6.67121 57.5,7.5C 54.1667,7.5 50.8333,7.5 47.5,7.5C 47.5,8.5 47.5,9.5 47.5,10.5C 42.1667,10.5 36.8333,10.5 31.5,10.5C 31.5,9.5 31.5,8.5 31.5,7.5C 27.1667,7.5 22.8333,7.5 18.5,7.5C 23.3165,6.67386 28.3165,6.17386 33.5,6C 25.1733,5.50027 16.84,5.3336 8.5,5.5 Z"/></g>
<g><path style="opacity:1" fill="#502714" d="M -0.5,3.5 C 15.5,3.5 31.5,3.5 47.5,3.5C 59.1667,4.16667 70.8333,4.83333 82.5,5.5C 69.36,6.08478 56.36,6.08478 43.5,5.5C 31.8333,4.16667 20.1667,4.16667 8.5,5.5C 8.19607,6.14987 7.86273,6.81654 7.5,7.5C 11.1073,8.48922 14.774,8.82256 18.5,8.5C 19.3764,8.36912 20.0431,8.70245 20.5,9.5C 15.544,10.4941 10.544,10.8275 5.5,10.5C 5.5,9.5 5.5,8.5 5.5,7.5C 3.5,7.5 1.5,7.5 -0.5,7.5C -0.5,6.16667 -0.5,4.83333 -0.5,3.5 Z"/></g>
<g><path style="opacity:1" fill="#31180c" d="M 8.5,5.5 C 16.84,5.3336 25.1733,5.50027 33.5,6C 28.3165,6.17386 23.3165,6.67386 18.5,7.5C 18.5,7.83333 18.5,8.16667 18.5,8.5C 14.774,8.82256 11.1073,8.48922 7.5,7.5C 7.86273,6.81654 8.19607,6.14987 8.5,5.5 Z"/></g>
<g><path style="opacity:1" fill="#432110" d="M 334.5,5.5 C 340.026,5.17859 345.36,5.51192 350.5,6.5C 349.609,7.10978 348.609,7.44312 347.5,7.5C 344.5,7.5 341.5,7.5 338.5,7.5C 334.528,6.89177 330.528,6.39177 326.5,6C 329.146,5.50258 331.813,5.33591 334.5,5.5 Z"/></g>
<g><path style="opacity:1" fill="#4c2614" d="M 388.5,5.5 C 401.359,6.02799 414.359,6.02799 427.5,5.5C 427.5,6.16667 427.5,6.83333 427.5,7.5C 424.167,7.5 420.833,7.5 417.5,7.5C 416.508,7.32842 415.842,7.66175 415.5,8.5C 411.003,9.05549 406.836,8.38882 403,6.5C 402.329,7.25244 401.496,7.58577 400.5,7.5C 396.958,7.18723 393.625,7.52056 390.5,8.5C 386.029,9.08943 382.029,8.42277 378.5,6.5C 381.728,5.58627 385.061,5.25293 388.5,5.5 Z"/></g>
<g><path style="opacity:1" fill="#5c321d" d="M 334.5,5.5 C 331.813,5.33591 329.146,5.50258 326.5,6C 330.528,6.39177 334.528,6.89177 338.5,7.5C 338.5,7.83333 338.5,8.16667 338.5,8.5C 333.167,8.5 327.833,8.5 322.5,8.5C 319.375,7.52056 316.042,7.18723 312.5,7.5C 312.5,8.5 312.5,9.5 312.5,10.5C 307.36,11.4881 302.026,11.8214 296.5,11.5C 296.5,10.1667 296.5,8.83333 296.5,7.5C 296.833,7.5 297.167,7.5 297.5,7.5C 300.986,6.04748 304.653,5.38081 308.5,5.5C 317.351,5.12531 326.018,5.12531 334.5,5.5 Z"/></g>
<g><path style="opacity:1" fill="#34190d" d="M 43.5,5.5 C 56.36,6.08478 69.36,6.08478 82.5,5.5C 84.2239,5.46072 84.5573,5.79405 83.5,6.5C 82.8333,6.83333 82.1667,7.16667 81.5,7.5C 73.4425,8.29832 65.4425,8.29832 57.5,7.5C 50.3448,6.67121 43.0115,6.17121 35.5,6C 38.146,5.50258 40.8127,5.33591 43.5,5.5 Z"/></g>
<g><path style="opacity:0.881" fill="#54382b" d="M 83.5,6.5 C 88.3054,7.48717 93.3054,7.82051 98.5,7.5C 98.5,8.5 98.5,9.5 98.5,10.5C 98.5,10.8333 98.5,11.1667 98.5,11.5C 92.8333,11.5 87.1667,11.5 81.5,11.5C 81.5,10.1667 81.5,8.83333 81.5,7.5C 82.1667,7.16667 82.8333,6.83333 83.5,6.5 Z"/></g>
<g><path style="opacity:1" fill="#361b0f" d="M 119.5,5.5 C 134.197,5.62546 148.864,5.95879 163.5,6.5C 157.974,6.17859 152.64,6.51192 147.5,7.5C 147.5,7.83333 147.5,8.16667 147.5,8.5C 135.536,7.33647 123.536,6.50313 111.5,6C 114.146,5.50258 116.813,5.33591 119.5,5.5 Z"/></g>
<g><path style="opacity:1" fill="#381c0f" d="M 173.5,5.5 C 179.026,5.17859 184.36,5.51192 189.5,6.5C 188.391,6.55688 187.391,6.89022 186.5,7.5C 184.866,6.83891 183.033,6.50558 181,6.5C 177,7.16667 173,7.83333 169,8.5C 166.705,8.4535 164.871,7.78683 163.5,6.5C 166.764,5.67577 170.098,5.34243 173.5,5.5 Z"/></g>
<g><path style="opacity:0.485" fill="#2a2522" d="M 176.5,8.5 C 179.625,7.52056 182.958,7.18723 186.5,7.5C 186.5,8.5 186.5,9.5 186.5,10.5C 186.167,10.5 185.833,10.5 185.5,10.5C 185.5,10.1667 185.5,9.83333 185.5,9.5C 182.713,8.52333 179.713,8.19 176.5,8.5 Z"/></g>
<g><path style="opacity:1" fill="#3b1d0f" d="M 212.5,5.5 C 212.5,5.83333 212.5,6.16667 212.5,6.5C 206.594,6.45607 200.761,7.12273 195,8.5C 192.705,8.4535 190.871,7.78683 189.5,6.5C 197.08,5.53433 204.747,5.201 212.5,5.5 Z"/></g>
<g><path style="opacity:1" fill="#432211" d="M 214.5,5.5 C 225.688,5.58716 237.021,5.75383 248.5,6C 247.756,7.03859 246.756,7.53859 245.5,7.5C 241.958,7.18723 238.625,7.52056 235.5,8.5C 230.352,9.07364 225.518,8.40697 221,6.5C 220.617,7.05596 220.117,7.38929 219.5,7.5C 217.833,7.5 216.167,7.5 214.5,7.5C 214.5,6.83333 214.5,6.16667 214.5,5.5 Z"/></g>
<g><path style="opacity:0.485" fill="#2e2623" d="M 245.5,7.5 C 245.5,7.83333 245.5,8.16667 245.5,8.5C 242.287,8.19 239.287,8.52333 236.5,9.5C 236.5,9.83333 236.5,10.1667 236.5,10.5C 236.167,10.5 235.833,10.5 235.5,10.5C 235.5,9.83333 235.5,9.16667 235.5,8.5C 238.625,7.52056 241.958,7.18723 245.5,7.5 Z"/></g>
<g><path style="opacity:1" fill="#432110" d="M 284.5,5.5 C 289.511,5.33407 294.511,5.50074 299.5,6C 298.584,6.27842 297.918,6.77842 297.5,7.5C 297.167,7.5 296.833,7.5 296.5,7.5C 293.833,7.5 291.167,7.5 288.5,7.5C 287.209,7.26269 286.209,7.59603 285.5,8.5C 281.774,8.82256 278.107,8.48922 274.5,7.5C 275.025,6.80762 275.692,6.30762 276.5,6C 279.146,5.50258 281.813,5.33591 284.5,5.5 Z"/></g>
<g><path style="opacity:0.484" fill="#26201c" d="M 322.5,8.5 C 322.5,9.16667 322.5,9.83333 322.5,10.5C 322.167,10.5 321.833,10.5 321.5,10.5C 318.833,9.16667 316.167,9.16667 313.5,10.5C 313.167,10.5 312.833,10.5 312.5,10.5C 312.5,9.5 312.5,8.5 312.5,7.5C 316.042,7.18723 319.375,7.52056 322.5,8.5 Z"/></g>
<g><path style="opacity:1" fill="#4a2412" d="M 378.5,6.5 C 377.292,7.23411 375.959,7.56745 374.5,7.5C 370.833,7.5 367.167,7.5 363.5,7.5C 361.051,8.04181 358.551,8.37514 356,8.5C 353.705,8.4535 351.871,7.78683 350.5,6.5C 359.962,5.20806 369.295,5.20806 378.5,6.5 Z"/></g>
<g><path style="opacity:0.485" fill="#2c2522" d="M 363.5,7.5 C 367.167,7.5 370.833,7.5 374.5,7.5C 374.5,7.83333 374.5,8.16667 374.5,8.5C 370.958,8.18723 367.625,8.52056 364.5,9.5C 364.5,9.83333 364.5,10.1667 364.5,10.5C 364.167,10.5 363.833,10.5 363.5,10.5C 363.5,9.5 363.5,8.5 363.5,7.5 Z"/></g>
<g><path style="opacity:0.484" fill="#231d1b" d="M 400.5,7.5 C 400.5,7.83333 400.5,8.16667 400.5,8.5C 400.5,9.5 400.5,10.5 400.5,11.5C 397.654,9.3665 394.654,9.03317 391.5,10.5C 391.167,10.5 390.833,10.5 390.5,10.5C 390.5,9.83333 390.5,9.16667 390.5,8.5C 393.625,7.52056 396.958,7.18723 400.5,7.5 Z"/></g>
<g><path style="opacity:0.07" fill="#000000" d="M -0.5,9.5 C -0.5,9.16667 -0.5,8.83333 -0.5,8.5C 1.16667,8.5 2.83333,8.5 4.5,8.5C 4.5,9.5 4.5,10.5 4.5,11.5C 10.1667,11.5 15.8333,11.5 21.5,11.5C 15.69,12.4896 9.68996,12.8229 3.5,12.5C 3.5,11.5 3.5,10.5 3.5,9.5C 2.16667,9.5 0.833333,9.5 -0.5,9.5 Z"/></g>
<g><path style="opacity:1" fill="#532e1c" d="M 81.5,7.5 C 78.8333,7.5 76.1667,7.5 73.5,7.5C 73.5,8.83333 73.5,10.1667 73.5,11.5C 68.1667,11.5 62.8333,11.5 57.5,11.5C 57.5,10.1667 57.5,8.83333 57.5,7.5C 65.4425,8.29832 73.4425,8.29832 81.5,7.5 Z"/></g>
<g><path style="opacity:0.984" fill="#582d18" d="M 82.5,8.5 C 87.544,8.17252 92.544,8.50585 97.5,9.5C 95,9.83333 92.5,10.1667 90,10.5C 87.0706,10.4752 84.5706,9.80856 82.5,8.5 Z"/></g>
<g><path style="opacity:1" fill="#5b2e19" d="M 147.5,7.5 C 152.64,6.51192 157.974,6.17859 163.5,6.5C 164.871,7.78683 166.705,8.4535 169,8.5C 173,7.83333 177,7.16667 181,6.5C 183.033,6.50558 184.866,6.83891 186.5,7.5C 182.958,7.18723 179.625,7.52056 176.5,8.5C 176.5,9.16667 176.5,9.83333 176.5,10.5C 171.125,10.8282 165.792,10.4948 160.5,9.5C 161.025,8.80762 161.692,8.30762 162.5,8C 157.511,7.50074 152.511,7.33407 147.5,7.5 Z"/></g>
<g><path style="opacity:0.07" fill="#000000" d="M 176.5,8.5 C 179.713,8.19 182.713,8.52333 185.5,9.5C 182.833,9.5 180.167,9.5 177.5,9.5C 177.5,10.5 177.5,11.5 177.5,12.5C 171.31,12.8229 165.31,12.4896 159.5,11.5C 165.358,11.8222 171.025,11.4889 176.5,10.5C 176.5,9.83333 176.5,9.16667 176.5,8.5 Z"/></g>
<g><path style="opacity:1" fill="#5c321e" d="M 189.5,6.5 C 190.871,7.78683 192.705,8.4535 195,8.5C 200.761,7.12273 206.594,6.45607 212.5,6.5C 212.5,6.83333 212.5,7.16667 212.5,7.5C 209.167,7.5 205.833,7.5 202.5,7.5C 202.5,8.83333 202.5,10.1667 202.5,11.5C 196.974,11.8214 191.64,11.4881 186.5,10.5C 186.5,9.5 186.5,8.5 186.5,7.5C 187.391,6.89022 188.391,6.55688 189.5,6.5 Z"/></g>
<g><path style="opacity:0.999" fill="#61351f" d="M 235.5,8.5 C 235.5,9.16667 235.5,9.83333 235.5,10.5C 230.36,11.4881 225.026,11.8214 219.5,11.5C 219.5,10.1667 219.5,8.83333 219.5,7.5C 220.117,7.38929 220.617,7.05596 221,6.5C 225.518,8.40697 230.352,9.07364 235.5,8.5 Z"/></g>
<g><path style="opacity:0.065" fill="#000000" d="M 236.5,9.5 C 239.287,8.52333 242.287,8.19 245.5,8.5C 245.5,9.5 245.5,10.5 245.5,11.5C 251.167,11.5 256.833,11.5 262.5,11.5C 256.69,12.4896 250.69,12.8229 244.5,12.5C 244.5,11.5 244.5,10.5 244.5,9.5C 241.833,9.5 239.167,9.5 236.5,9.5 Z"/></g>
<g><path style="opacity:0.05" fill="#110f0e" d="M 271.5,9.5 C 268.145,9.09141 265.145,9.75807 262.5,11.5C 262.5,10.1667 262.5,8.83333 262.5,7.5C 266.012,6.9455 269.012,7.61216 271.5,9.5 Z"/></g>
<g><path style="opacity:0.991" fill="#6b3b22" d="M 322.5,8.5 C 327.833,8.5 333.167,8.5 338.5,8.5C 338.5,9.5 338.5,10.5 338.5,11.5C 332.974,11.8214 327.64,11.4881 322.5,10.5C 322.5,9.83333 322.5,9.16667 322.5,8.5 Z"/></g>
<g><path style="opacity:0.077" fill="#0a0908" d="M 338.5,7.5 C 341.5,7.5 344.5,7.5 347.5,7.5C 347.5,8.83333 347.5,10.1667 347.5,11.5C 353.026,11.8214 358.36,11.4881 363.5,10.5C 363.833,10.5 364.167,10.5 364.5,10.5C 358.926,12.4533 352.926,13.12 346.5,12.5C 346.5,11.5 346.5,10.5 346.5,9.5C 344.167,9.5 341.833,9.5 339.5,9.5C 339.5,10.5 339.5,11.5 339.5,12.5C 333.074,13.12 327.074,12.4533 321.5,10.5C 321.833,10.5 322.167,10.5 322.5,10.5C 327.64,11.4881 332.974,11.8214 338.5,11.5C 338.5,10.5 338.5,9.5 338.5,8.5C 338.5,8.16667 338.5,7.83333 338.5,7.5 Z"/></g>
<g><path style="opacity:1" fill="#6b3a22" d="M 350.5,6.5 C 351.871,7.78683 353.705,8.4535 356,8.5C 358.551,8.37514 361.051,8.04181 363.5,7.5C 363.5,8.5 363.5,9.5 363.5,10.5C 358.36,11.4881 353.026,11.8214 347.5,11.5C 347.5,10.1667 347.5,8.83333 347.5,7.5C 348.609,7.44312 349.609,7.10978 350.5,6.5 Z"/></g>
<g><path style="opacity:0.072" fill="#020101" d="M 364.5,9.5 C 367.625,8.52056 370.958,8.18723 374.5,8.5C 374.5,9.5 374.5,10.5 374.5,11.5C 380.026,11.8214 385.36,11.4881 390.5,10.5C 390.833,10.5 391.167,10.5 391.5,10.5C 385.926,12.4533 379.926,13.12 373.5,12.5C 373.5,11.5 373.5,10.5 373.5,9.5C 370.5,9.5 367.5,9.5 364.5,9.5 Z"/></g>
<g><path style="opacity:1" fill="#6e3c23" d="M 378.5,6.5 C 382.029,8.42277 386.029,9.08943 390.5,8.5C 390.5,9.16667 390.5,9.83333 390.5,10.5C 385.36,11.4881 380.026,11.8214 374.5,11.5C 374.5,10.5 374.5,9.5 374.5,8.5C 374.5,8.16667 374.5,7.83333 374.5,7.5C 375.959,7.56745 377.292,7.23411 378.5,6.5 Z"/></g>
<g><path style="opacity:0.999" fill="#793d20" d="M 415.5,8.5 C 416.043,8.55999 416.376,8.89333 416.5,9.5C 410.902,11.0331 405.569,10.6997 400.5,8.5C 400.5,8.16667 400.5,7.83333 400.5,7.5C 401.496,7.58577 402.329,7.25244 403,6.5C 406.836,8.38882 411.003,9.05549 415.5,8.5 Z"/></g>
<g><path style="opacity:0.067" fill="#0c0a09" d="M 417.5,7.5 C 420.833,7.5 424.167,7.5 427.5,7.5C 427.5,8.16667 427.5,8.83333 427.5,9.5C 424.5,9.5 421.5,9.5 418.5,9.5C 418.5,10.5 418.5,11.5 418.5,12.5C 412.31,12.8229 406.31,12.4896 400.5,11.5C 406.167,11.5 411.833,11.5 417.5,11.5C 417.5,10.1667 417.5,8.83333 417.5,7.5 Z"/></g>
<g><path style="opacity:0.675" fill="#41322b" d="M -0.5,8.5 C -0.5,8.16667 -0.5,7.83333 -0.5,7.5C 1.5,7.5 3.5,7.5 5.5,7.5C 5.5,8.5 5.5,9.5 5.5,10.5C 10.544,10.8275 15.544,10.4941 20.5,9.5C 20.0431,8.70245 19.3764,8.36912 18.5,8.5C 18.5,8.16667 18.5,7.83333 18.5,7.5C 22.8333,7.5 27.1667,7.5 31.5,7.5C 31.5,8.5 31.5,9.5 31.5,10.5C 36.8333,10.5 42.1667,10.5 47.5,10.5C 42.0247,11.4889 36.358,11.8222 30.5,11.5C 30.5,10.5 30.5,9.5 30.5,8.5C 27.2869,8.19 24.2869,8.52333 21.5,9.5C 21.5,10.1667 21.5,10.8333 21.5,11.5C 15.8333,11.5 10.1667,11.5 4.5,11.5C 4.5,10.5 4.5,9.5 4.5,8.5C 2.83333,8.5 1.16667,8.5 -0.5,8.5 Z"/></g>
<g><path style="opacity:0.046" fill="#000000" d="M 21.5,9.5 C 24.2869,8.52333 27.2869,8.19 30.5,8.5C 30.5,9.5 30.5,10.5 30.5,11.5C 27.8555,9.75807 24.8555,9.09141 21.5,9.5 Z"/></g>
<g><path style="opacity:0.079" fill="#0d0b0b" d="M 57.5,7.5 C 57.5,8.83333 57.5,10.1667 57.5,11.5C 62.8333,11.5 68.1667,11.5 73.5,11.5C 73.5,10.1667 73.5,8.83333 73.5,7.5C 76.1667,7.5 78.8333,7.5 81.5,7.5C 81.5,8.83333 81.5,10.1667 81.5,11.5C 87.1667,11.5 92.8333,11.5 98.5,11.5C 92.69,12.4896 86.69,12.8229 80.5,12.5C 80.5,11.5 80.5,10.5 80.5,9.5C 78.5,9.5 76.5,9.5 74.5,9.5C 74.5,10.5 74.5,11.5 74.5,12.5C 68.5,12.5 62.5,12.5 56.5,12.5C 56.5,11.5 56.5,10.5 56.5,9.5C 53.8333,9.5 51.1667,9.5 48.5,9.5C 48.5,10.5 48.5,11.5 48.5,12.5C 42.31,12.8229 36.31,12.4896 30.5,11.5C 36.358,11.8222 42.0247,11.4889 47.5,10.5C 47.5,9.5 47.5,8.5 47.5,7.5C 50.8333,7.5 54.1667,7.5 57.5,7.5 Z"/></g>
<g><path style="opacity:0.672" fill="#48362e" d="M 147.5,8.5 C 147.5,8.16667 147.5,7.83333 147.5,7.5C 152.511,7.33407 157.511,7.50074 162.5,8C 161.692,8.30762 161.025,8.80762 160.5,9.5C 165.792,10.4948 171.125,10.8282 176.5,10.5C 171.025,11.4889 165.358,11.8222 159.5,11.5C 159.5,10.5 159.5,9.5 159.5,8.5C 156.167,8.5 152.833,8.5 149.5,8.5C 149.5,9.5 149.5,10.5 149.5,11.5C 143.642,11.8222 137.975,11.4889 132.5,10.5C 137.875,10.8282 143.208,10.4948 148.5,9.5C 148.376,8.89333 148.043,8.55999 147.5,8.5 Z"/></g>
<g><path style="opacity:0.043" fill="#000000" d="M 159.5,11.5 C 156.167,8.83333 152.833,8.83333 149.5,11.5C 149.5,10.5 149.5,9.5 149.5,8.5C 152.833,8.5 156.167,8.5 159.5,8.5C 159.5,9.5 159.5,10.5 159.5,11.5 Z"/></g>
<g><path style="opacity:0.675" fill="#513a2f" d="M 285.5,8.5 C 286.209,7.59603 287.209,7.26269 288.5,7.5C 288.5,8.83333 288.5,10.1667 288.5,11.5C 282.974,11.8214 277.64,11.4881 272.5,10.5C 277.544,10.8275 282.544,10.4941 287.5,9.5C 287.043,8.70245 286.376,8.36912 285.5,8.5 Z"/></g>
<g><path style="opacity:0.079" fill="#0b0908" d="M 288.5,7.5 C 291.167,7.5 293.833,7.5 296.5,7.5C 296.5,8.83333 296.5,10.1667 296.5,11.5C 302.026,11.8214 307.36,11.4881 312.5,10.5C 312.833,10.5 313.167,10.5 313.5,10.5C 307.926,12.4533 301.926,13.12 295.5,12.5C 295.5,11.5 295.5,10.5 295.5,9.5C 293.5,9.5 291.5,9.5 289.5,9.5C 289.5,10.5 289.5,11.5 289.5,12.5C 283.074,13.12 277.074,12.4533 271.5,10.5C 271.833,10.5 272.167,10.5 272.5,10.5C 277.64,11.4881 282.974,11.8214 288.5,11.5C 288.5,10.1667 288.5,8.83333 288.5,7.5 Z"/></g>
<g><path style="opacity:0.675" fill="#563d31" d="M 415.5,8.5 C 415.842,7.66175 416.508,7.32842 417.5,7.5C 417.5,8.83333 417.5,10.1667 417.5,11.5C 411.833,11.5 406.167,11.5 400.5,11.5C 400.5,10.5 400.5,9.5 400.5,8.5C 405.569,10.6997 410.902,11.0331 416.5,9.5C 416.376,8.89333 416.043,8.55999 415.5,8.5 Z"/></g>
<g><path style="opacity:0.075" fill="#0f0d0c" d="M 98.5,7.5 C 101.5,7.5 104.5,7.5 107.5,7.5C 107.5,8.83333 107.5,10.1667 107.5,11.5C 112.833,11.5 118.167,11.5 123.5,11.5C 123.5,10.1667 123.5,8.83333 123.5,7.5C 126.5,7.5 129.5,7.5 132.5,7.5C 132.5,8.5 132.5,9.5 132.5,10.5C 137.975,11.4889 143.642,11.8222 149.5,11.5C 143.69,12.4896 137.69,12.8229 131.5,12.5C 131.5,11.5 131.5,10.5 131.5,9.5C 129.167,9.5 126.833,9.5 124.5,9.5C 124.5,10.5 124.5,11.5 124.5,12.5C 118.5,12.5 112.5,12.5 106.5,12.5C 106.5,11.5 106.5,10.5 106.5,9.5C 103.721,9.27863 101.054,9.61197 98.5,10.5C 98.5,9.5 98.5,8.5 98.5,7.5 Z"/></g>
<g><path style="opacity:0.075" fill="#0d0b0a" d="M 212.5,7.5 C 213.167,7.5 213.833,7.5 214.5,7.5C 216.167,7.5 217.833,7.5 219.5,7.5C 219.5,8.83333 219.5,10.1667 219.5,11.5C 225.026,11.8214 230.36,11.4881 235.5,10.5C 235.833,10.5 236.167,10.5 236.5,10.5C 230.926,12.4533 224.926,13.12 218.5,12.5C 218.5,11.5 218.5,10.5 218.5,9.5C 213.5,9.5 208.5,9.5 203.5,9.5C 203.5,10.5 203.5,11.5 203.5,12.5C 197.074,13.12 191.074,12.4533 185.5,10.5C 185.833,10.5 186.167,10.5 186.5,10.5C 191.64,11.4881 196.974,11.8214 202.5,11.5C 202.5,10.1667 202.5,8.83333 202.5,7.5C 205.833,7.5 209.167,7.5 212.5,7.5 Z"/></g>
</svg>
